<?xml version="1.0" encoding="utf-8"?>
<!-- Generator: Adobe Illustrator 25.4.1, SVG Export Plug-In . SVG Version: 6.00 Build 0)  -->
<svg version="1.1" id="Layer_1" xmlns="http://www.w3.org/2000/svg" xmlns:xlink="http://www.w3.org/1999/xlink" x="0px" y="0px"
	 viewBox="0 0 595.28 841.89" style="enable-background:new 0 0 100.28 100.89;" xml:space="preserve">
<style type="text/css">
	.st0{fill:#666666;}
	.st1{fill:#FFFFFF;}
	.st2{fill:#0000FF;}
	.st3{fill:#FF0000;}
</style>
<g id="Layer_2_00000075150319361397206130000012030811050617048509_">
	<g id="Layer_1-2_00000163043496060714801160000007672436445141052062_">
		<path class="st0" d="M344.79,370.95h-94.19c-1.34,0.04-2.4,1.13-2.4,2.46v94.38c0,1.36,1.1,2.46,2.46,2.46h94.12
			c1.34,0,2.43-1.06,2.46-2.4v-94.25c0.11-1.36-0.91-2.54-2.26-2.65C344.93,370.95,344.86,370.95,344.79,370.95z M342.39,465.13
			h-89.39v-89.13h89.32L342.39,465.13z"/>
		<path class="st0" d="M233.22,352.78c-1.11-0.79-2.65-0.53-3.44,0.58c-0.61,0.86-0.61,2.01,0,2.86l9.92,9.92
			c1.11,0.79,2.65,0.53,3.44-0.58c0.61-0.86,0.61-2.01,0-2.86L233.22,352.78z"/>
		<path class="st0" d="M258.07,364.07c0.58,1.23,2.05,1.76,3.28,1.18c1.23-0.58,1.76-2.05,1.18-3.28c-0.08-0.18-0.19-0.34-0.31-0.49
			l-6.62-10.64c-0.58-1.23-2.05-1.76-3.28-1.18c-1.23,0.58-1.76,2.05-1.18,3.28c0.08,0.18,0.19,0.34,0.31,0.49L258.07,364.07z"/>
		<path class="st0" d="M276.55,361.8c0.31,1.03,1.26,1.74,2.34,1.75h0.65c1.27-0.38,2.02-1.7,1.69-2.98l-3.31-11.48
			c-0.59-1.23-2.06-1.75-3.29-1.16c-0.95,0.46-1.51,1.47-1.38,2.52L276.55,361.8z"/>
		<path class="st0" d="M353.88,366.86c0.66,0,1.29-0.25,1.75-0.71l9.92-9.92c1.11-0.79,1.37-2.33,0.58-3.44s-2.33-1.37-3.44-0.58
			c-0.22,0.16-0.42,0.35-0.58,0.58l-9.92,9.92c-0.93,0.99-0.88,2.55,0.11,3.48c0.45,0.42,1.03,0.66,1.64,0.67H353.88z"/>
		<path class="st0" d="M333.83,364.85c1.15,0.71,2.65,0.36,3.37-0.78l6.49-10.64c0.58-1.23,0.05-2.7-1.18-3.28
			c-1.03-0.49-2.26-0.2-2.97,0.69l-6.49,10.64C332.35,362.62,332.69,364.13,333.83,364.85z"/>
		<path class="st0" d="M315.99,363.42h0.71c1.08-0.01,2.02-0.72,2.34-1.75l2.98-11.22c0.16-1.35-0.8-2.58-2.15-2.75
			c-1.05-0.13-2.07,0.43-2.52,1.38l-3.31,11.35c-0.31,1.33,0.51,2.65,1.84,2.96C315.92,363.41,315.96,363.42,315.99,363.42z"/>
		<path class="st0" d="M297.64,361.87c1.34,0,2.43-1.06,2.46-2.4v-12c-0.22-1.34-1.49-2.25-2.83-2.03
			c-1.04,0.17-1.86,0.99-2.03,2.03v12C295.27,360.78,296.32,361.83,297.64,361.87z"/>
		<path class="st0" d="M224.53,378.6l10.64,6.49c1.15,0.71,2.65,0.36,3.37-0.78c0.71-1.15,0.36-2.65-0.78-3.37l-10.64-6.49
			c-1.23-0.58-2.7-0.05-3.28,1.18C223.36,376.66,223.64,377.89,224.53,378.6z"/>
		<path class="st0" d="M222.78,400.92l11.35,3.31h0.71c1.32,0.11,2.48-0.88,2.59-2.2c0.1-1.19-0.7-2.28-1.87-2.54l-11.42-3.24
			c-1.23-0.59-2.7-0.07-3.29,1.16c-0.59,1.23-0.07,2.7,1.16,3.29C222.26,400.81,222.51,400.88,222.78,400.92z"/>
		<path class="st0" d="M233.16,422.84c1.34-0.22,2.25-1.49,2.03-2.83c-0.17-1.04-0.99-1.86-2.03-2.03h-12
			c-1.34,0.22-2.25,1.49-2.03,2.83c0.17,1.04,0.99,1.86,2.03,2.03H233.16z"/>
		<path class="st0" d="M239.71,475.19l-9.92,9.86c-0.79,1.11-0.53,2.65,0.58,3.44c0.86,0.61,2.01,0.61,2.86,0l9.92-9.86
			c0.79-1.11,0.53-2.65-0.58-3.44C241.72,474.58,240.57,474.58,239.71,475.19z"/>
		<path class="st0" d="M238.54,456.83c-0.68-1.14-2.15-1.51-3.29-0.83c-0.03,0.02-0.05,0.03-0.08,0.05l-10.64,6.49
			c-1.11,0.78-1.38,2.32-0.59,3.44c0.44,0.62,1.13,1,1.89,1.04c0.46,0,0.91-0.14,1.3-0.39l10.64-6.49
			C238.86,459.42,239.21,457.96,238.54,456.83z"/>
		<path class="st0" d="M224.14,445.03l11.35-3.31c1.35-0.16,2.31-1.39,2.15-2.75c-0.16-1.35-1.39-2.31-2.75-2.15
			c-0.27,0.03-0.52,0.11-0.77,0.22l-11.35,3.31c-1.29,0.29-2.11,1.57-1.82,2.86c0.26,1.17,1.34,1.97,2.54,1.87L224.14,445.03z"/>
		<path class="st0" d="M356.86,384.44c0.72,1.14,2.23,1.48,3.37,0.78l10.64-6.49c1.06-0.85,1.23-2.4,0.38-3.47
			c-0.71-0.89-1.94-1.17-2.97-0.69l-10.64,6.49C356.5,381.79,356.15,383.29,356.86,384.44z"/>
		<path class="st0" d="M359.91,399.55c-1.29,0.29-2.11,1.57-1.82,2.86c0.26,1.17,1.34,1.97,2.54,1.87h0.71l11.35-3.31
			c1.35-0.16,2.31-1.39,2.15-2.75c-0.16-1.35-1.39-2.31-2.75-2.15c-0.27,0.03-0.52,0.11-0.77,0.22L359.91,399.55z"/>
		<path class="st0" d="M374.37,418.24h-12.13c-1.34,0.22-2.25,1.49-2.03,2.83c0.17,1.04,0.99,1.86,2.03,2.03h12.13
			c1.34-0.22,2.25-1.49,2.03-2.83C376.24,419.22,375.42,418.41,374.37,418.24z"/>
		<path class="st0" d="M355.69,475.19c-1.11-0.79-2.65-0.53-3.44,0.58c-0.61,0.86-0.61,2.01,0,2.86l9.92,9.92
			c0.79,1.11,2.33,1.37,3.44,0.58c1.11-0.79,1.37-2.33,0.58-3.44c-0.16-0.22-0.35-0.42-0.58-0.58L355.69,475.19z"/>
		<path class="st0" d="M370.81,462.67l-10.64-6.49c-1.06-0.85-2.61-0.68-3.47,0.38c-0.85,1.06-0.68,2.61,0.38,3.47
			c0.15,0.12,0.32,0.22,0.49,0.31l10.64,6.49c1.15,0.71,2.65,0.36,3.37-0.78C372.29,464.89,371.94,463.39,370.81,462.67z"/>
		<path class="st0" d="M372.56,440.35l-11.16-3.31c-1.23-0.59-2.7-0.07-3.29,1.16c-0.59,1.23-0.07,2.7,1.16,3.29
			c0.24,0.12,0.5,0.19,0.77,0.22l11.35,3.31h0.71c1.32,0.11,2.48-0.88,2.59-2.2c0.1-1.19-0.7-2.28-1.87-2.54L372.56,440.35z"/>
		<path class="st0" d="M261.44,476.55c-1.15-0.71-2.65-0.36-3.37,0.78l-6.55,10.38c-0.71,1.15-0.36,2.65,0.78,3.37
			c0.39,0.25,0.84,0.39,1.3,0.39c0.85-0.01,1.63-0.45,2.08-1.17l6.49-10.64C262.71,478.59,262.41,477.27,261.44,476.55z"/>
		<path class="st0" d="M279.6,477.91c-1.27-0.34-2.58,0.37-2.98,1.62l-3.31,11.35c-0.33,1.29,0.41,2.61,1.69,2.98h0.65
			c1.08-0.01,2.02-0.72,2.34-1.75l3.24-10.9c0.52-1.26-0.09-2.7-1.35-3.21C279.79,477.97,279.7,477.94,279.6,477.91z"/>
		<path class="st0" d="M337.2,477.33c-0.85-1.06-2.4-1.23-3.47-0.38c-0.89,0.71-1.17,1.94-0.69,2.97l6.49,10.64
			c0.58,1.23,2.05,1.76,3.28,1.18s1.76-2.05,1.18-3.28c-0.08-0.18-0.19-0.34-0.31-0.49L337.2,477.33z"/>
		<path class="st0" d="M318.72,479.6c-0.59-1.23-2.06-1.75-3.29-1.16c-0.95,0.46-1.51,1.47-1.38,2.52l3.31,11.35
			c0.31,1.03,1.26,1.74,2.34,1.75h0.71c1.25-0.4,1.96-1.72,1.62-2.98L318.72,479.6z"/>
		<path class="st0" d="M297.64,479.47c-1.34,0.04-2.4,1.13-2.4,2.46v12.26c0,1.34,1.09,2.43,2.43,2.43s2.43-1.09,2.43-2.43v-12.26
			C300.1,480.57,299,479.47,297.64,479.47L297.64,479.47z"/>
	</g>
</g>
<rect x="253.01" y="376.01" class="st1" width="89.39" height="29.71"/>
<rect x="253.01" y="405.72" class="st2" width="89.39" height="29.71"/>
<rect x="253.01" y="435.42" class="st3" width="89.39" height="29.71"/>
</svg>
