<svg width="6" height="10" viewBox="0 0 6 10" fill="none" xmlns="http://www.w3.org/2000/svg">
<path d="M2.40843 4.99992L5.35843 2.04992C5.51364 1.89378 5.60076 1.68257 5.60076 1.46242C5.60076 1.24226 5.51364 1.03105 5.35843 0.874917C5.28096 0.79681 5.18879 0.734814 5.08724 0.692507C4.98569 0.6502 4.87677 0.628418 4.76676 0.628418C4.65675 0.628418 4.54783 0.6502 4.44628 0.692507C4.34473 0.734814 4.25256 0.79681 4.1751 0.874917L0.641762 4.40825C0.563655 4.48572 0.50166 4.57789 0.459353 4.67944C0.417046 4.78099 0.395264 4.88991 0.395264 4.99992C0.395264 5.10993 0.417046 5.21885 0.459353 5.3204C0.50166 5.42195 0.563655 5.51411 0.641762 5.59158L4.1751 9.16658C4.25296 9.24382 4.34531 9.30492 4.44684 9.34639C4.54837 9.38786 4.65709 9.40889 4.76676 9.40825C4.87643 9.40889 4.98515 9.38786 5.08668 9.34639C5.18822 9.30492 5.28056 9.24382 5.35843 9.16658C5.51364 9.01045 5.60076 8.79924 5.60076 8.57908C5.60076 8.35893 5.51364 8.14772 5.35843 7.99158L2.40843 4.99992Z" fill="#1F2937"/>
</svg>
