<svg xmlns="http://www.w3.org/2000/svg" viewBox="0 0 185.92 88.84"><defs><style>.cls-1{fill:red;}</style></defs><title>logo_era</title><g id="Слой_2" data-name="Слой 2"><g id="Layer_1" data-name="Layer 1"><path d="M98.59,40.48h15.7a7,7,0,0,0-3.39-5.82,13.29,13.29,0,0,0-7-1.89,13.57,13.57,0,0,0-5.4,1,16,16,0,0,0-3.74,2.21l-4.52-6.07a28.2,28.2,0,0,1,6-3A22.57,22.57,0,0,1,104,25.62q9,0,13.14,4.07a19.34,19.34,0,0,1,5.43,8.93,29.06,29.06,0,0,1,.49,2.92,25,25,0,0,1,.16,2.76c0,.73,0,1.46-.11,2.21a16.77,16.77,0,0,1-.39,2.27,20.18,20.18,0,0,1-5.89,10.11q-4.68,4.59-14,4.59a21.16,21.16,0,0,1-7.49-1.2,25.49,25.49,0,0,1-5.57-2.84l5-5.68c.33.26.67.49,1,.71s.68.42,1,.6a11.41,11.41,0,0,0,2.94,1,17.78,17.78,0,0,0,3.5.3c.63,0,1.36,0,2.2-.08a10.37,10.37,0,0,0,2.59-.52,10,10,0,0,0,4-2.46,8.77,8.77,0,0,0,2.26-5.62H98.59Z"/><path d="M137.76,62.77h-8.92V26.39h11.9q7.21,0,10.41,3.52a12.89,12.89,0,0,1,3.52,7.78,2.84,2.84,0,0,1,.06.57v.57a13.83,13.83,0,0,1-3.47,9.42q-3.48,4-10.52,4h-3Zm2.32-17.7.94,0a5.62,5.62,0,0,0,1-.14,4.56,4.56,0,0,0,2.59-1.39q1.16-1.17,1.16-4.29T144.43,35a5.18,5.18,0,0,0-2.92-1.31l-.74-.08-.69,0h-2.32V45.07Z"/><path d="M158.59,62.77h-8.81l17.68-37.15h.77l17.68,37.15H177.1l-2.31-4.92H160.91Zm13.27-12.13-4-7.38-4.08,7.38Z"/><path d="M176.53,29.82a4.56,4.56,0,1,1,4.57,4.48A4.48,4.48,0,0,1,176.53,29.82Zm4.57,3.73a3.72,3.72,0,1,0-3.67-3.73A3.62,3.62,0,0,0,181.1,33.55Zm-1-1.14h-.78V27.25h2c1.23,0,1.83.45,1.83,1.47a1.35,1.35,0,0,1-1.34,1.42l1.47,2.27h-.88l-1.37-2.24h-.9Zm.94-2.9c.67,0,1.26,0,1.26-.84,0-.64-.58-.76-1.13-.76h-1.07v1.6Z"/><ellipse class="cls-1" cx="36.54" cy="44.42" rx="5.63" ry="5.59"/><ellipse class="cls-1" cx="47.74" cy="44.42" rx="3.65" ry="3.63"/><ellipse class="cls-1" cx="36.54" cy="1.88" rx="1.89" ry="1.88"/><ellipse class="cls-1" cx="36.54" cy="8.32" rx="2.83" ry="2.81"/><ellipse class="cls-1" cx="36.54" cy="16.94" rx="3.84" ry="3.81"/><ellipse class="cls-1" cx="36.54" cy="24.85" rx="2.27" ry="2.25"/><ellipse class="cls-1" cx="36.54" cy="86.97" rx="1.89" ry="1.88"/><ellipse class="cls-1" cx="36.54" cy="80.53" rx="2.83" ry="2.81"/><ellipse class="cls-1" cx="36.54" cy="71.9" rx="3.84" ry="3.81"/><ellipse class="cls-1" cx="36.54" cy="63.99" rx="2.27" ry="2.25"/><path class="cls-1" d="M25.1,3.38a1.89,1.89,0,1,1-2.38-1.2A1.87,1.87,0,0,1,25.1,3.38Z"/><path class="cls-1" d="M28,9.21a2.81,2.81,0,0,1-1.82,3.55A2.84,2.84,0,0,1,22.61,11a2.81,2.81,0,0,1,1.82-3.55A2.84,2.84,0,0,1,28,9.21Z"/><path class="cls-1" d="M31.64,17.11a3.84,3.84,0,1,1-4.84-2.45A3.81,3.81,0,0,1,31.64,17.11Z"/><path class="cls-1" d="M32.61,25.11a2.26,2.26,0,1,1-2.85-1.44A2.25,2.25,0,0,1,32.61,25.11Z"/><path class="cls-1" d="M48,85.46a1.89,1.89,0,1,1,2.38,1.21A1.89,1.89,0,0,1,48,85.46Z"/><path class="cls-1" d="M45.08,79.63a2.83,2.83,0,1,1,3.57,1.81A2.84,2.84,0,0,1,45.08,79.63Z"/><path class="cls-1" d="M41.44,71.73a3.84,3.84,0,1,1,4.84,2.45A3.81,3.81,0,0,1,41.44,71.73Z"/><path class="cls-1" d="M40.47,63.72a2.25,2.25,0,0,1,1.45-2.84,2.27,2.27,0,0,1,2.86,1.44,2.26,2.26,0,0,1-4.31,1.39Z"/><path class="cls-1" d="M12.89,8.9a1.87,1.87,0,0,1-.42,2.62,1.9,1.9,0,0,1-2.64-.41,1.87,1.87,0,0,1,.42-2.62A1.9,1.9,0,0,1,12.89,8.9Z"/><path class="cls-1" d="M17.47,13.56a2.8,2.8,0,0,1-.63,3.93,2.84,2.84,0,0,1-4-.62,2.8,2.8,0,0,1,.63-3.93A2.85,2.85,0,0,1,17.47,13.56Z"/><path class="cls-1" d="M23.39,19.95a3.8,3.8,0,0,1-.85,5.33,3.85,3.85,0,0,1-5.36-.84A3.8,3.8,0,0,1,18,19.1,3.86,3.86,0,0,1,23.39,19.95Z"/><path class="cls-1" d="M26.79,27.27a2.24,2.24,0,0,1-.5,3.14,2.27,2.27,0,0,1-3.17-.5,2.24,2.24,0,0,1,.5-3.14A2.28,2.28,0,0,1,26.79,27.27Z"/><path class="cls-1" d="M60.19,79.94a1.87,1.87,0,0,1,.42-2.62,1.9,1.9,0,0,1,2.64.42,1.87,1.87,0,0,1-.42,2.62A1.89,1.89,0,0,1,60.19,79.94Z"/><path class="cls-1" d="M55.61,75.28a2.8,2.8,0,0,1,.63-3.93,2.84,2.84,0,0,1,4,.62,2.8,2.8,0,0,1-.63,3.93A2.84,2.84,0,0,1,55.61,75.28Z"/><path class="cls-1" d="M49.69,68.89a3.8,3.8,0,0,1,.85-5.33,3.86,3.86,0,0,1,5.36.84,3.8,3.8,0,0,1-.85,5.33A3.86,3.86,0,0,1,49.69,68.89Z"/><path class="cls-1" d="M46.28,61.57a2.24,2.24,0,0,1,.5-3.14,2.28,2.28,0,0,1,3.17.5,2.24,2.24,0,0,1-.5,3.14A2.28,2.28,0,0,1,46.28,61.57Z"/><path class="cls-1" d="M3,17.89a1.87,1.87,0,0,1,.42,2.62,1.9,1.9,0,0,1-2.64.42,1.87,1.87,0,0,1-.42-2.62A1.9,1.9,0,0,1,3,17.89Z"/><path class="cls-1" d="M8.8,20.92a2.8,2.8,0,0,1,.63,3.93,2.85,2.85,0,0,1-4,.62,2.8,2.8,0,0,1-.63-3.93A2.84,2.84,0,0,1,8.8,20.92Z"/><path class="cls-1" d="M16.42,25.18a3.8,3.8,0,0,1,.85,5.33,3.86,3.86,0,0,1-5.36.84A3.8,3.8,0,0,1,11.05,26,3.86,3.86,0,0,1,16.42,25.18Z"/><path class="cls-1" d="M21.93,31.1a2.24,2.24,0,0,1,.5,3.15,2.27,2.27,0,0,1-3.16.5,2.24,2.24,0,0,1-.5-3.14A2.28,2.28,0,0,1,21.93,31.1Z"/><path class="cls-1" d="M70.08,70.94a1.87,1.87,0,0,1-.42-2.62,1.89,1.89,0,0,1,2.64-.42,1.87,1.87,0,0,1,.42,2.62A1.9,1.9,0,0,1,70.08,70.94Z"/><path class="cls-1" d="M64.28,67.92A2.8,2.8,0,0,1,63.65,64a2.85,2.85,0,0,1,4-.62,2.81,2.81,0,0,1,.63,3.93A2.84,2.84,0,0,1,64.28,67.92Z"/><path class="cls-1" d="M56.66,63.66a3.8,3.8,0,0,1-.85-5.33,3.85,3.85,0,0,1,5.36-.84A3.8,3.8,0,0,1,62,62.81,3.86,3.86,0,0,1,56.66,63.66Z"/><path class="cls-1" d="M51.14,57.74a2.24,2.24,0,0,1-.5-3.14,2.28,2.28,0,0,1,3.17-.5,2.25,2.25,0,0,1,.5,3.15A2.28,2.28,0,0,1,51.14,57.74Z"/><path class="cls-1" d="M76.69,59.35A1.87,1.87,0,0,1,75.48,57a1.89,1.89,0,0,1,2.38-1.2,1.88,1.88,0,1,1-1.17,3.57Z"/><path class="cls-1" d="M70.23,58.25a2.82,2.82,0,1,1,3.57-1.81A2.81,2.81,0,0,1,70.23,58.25Z"/><path class="cls-1" d="M61.66,56.54a3.82,3.82,0,1,1,4.84-2.45A3.85,3.85,0,0,1,61.66,56.54Z"/><path class="cls-1" d="M54.57,52.61a2.25,2.25,0,1,1,2.86-1.45A2.27,2.27,0,0,1,54.57,52.61Z"/><ellipse class="cls-1" cx="79.37" cy="44.42" rx="1.89" ry="1.88"/><ellipse class="cls-1" cx="72.89" cy="44.42" rx="2.83" ry="2.81"/><ellipse class="cls-1" cx="64.2" cy="44.42" rx="3.84" ry="3.81"/><ellipse class="cls-1" cx="56.24" cy="44.42" rx="2.27" ry="2.25"/><path class="cls-1" d="M77.86,33.06a1.88,1.88,0,1,1,1.21-2.36A1.87,1.87,0,0,1,77.86,33.06Z"/><path class="cls-1" d="M72,35.94a2.82,2.82,0,1,1,1.82-3.55A2.84,2.84,0,0,1,72,35.94Z"/><path class="cls-1" d="M64,39.56a3.82,3.82,0,1,1,2.47-4.81A3.84,3.84,0,0,1,64,39.56Z"/><path class="cls-1" d="M56,40.51a2.25,2.25,0,1,1,1.46-2.84A2.27,2.27,0,0,1,56,40.51Z"/><path class="cls-1" d="M.78,67.91a1.9,1.9,0,0,1,2.64.42A1.87,1.87,0,0,1,3,70.94a1.9,1.9,0,0,1-2.64-.42A1.87,1.87,0,0,1,.78,67.91Z"/><path class="cls-1" d="M5.47,63.37a2.85,2.85,0,0,1,4,.62,2.8,2.8,0,0,1-.63,3.93,2.85,2.85,0,0,1-4-.62A2.81,2.81,0,0,1,5.47,63.37Z"/><path class="cls-1" d="M11.9,57.48a3.86,3.86,0,0,1,5.36.84,3.8,3.8,0,0,1-.85,5.33,3.85,3.85,0,0,1-5.36-.85A3.8,3.8,0,0,1,11.9,57.48Z"/><path class="cls-1" d="M19.27,54.1a2.28,2.28,0,0,1,3.17.5,2.24,2.24,0,0,1-.5,3.14,2.28,2.28,0,0,1-3.17-.5A2.25,2.25,0,0,1,19.27,54.1Z"/><path class="cls-1" d="M72.3,20.93a1.9,1.9,0,0,1-2.64-.42,1.87,1.87,0,0,1,.42-2.62,1.89,1.89,0,0,1,2.64.42A1.87,1.87,0,0,1,72.3,20.93Z"/><path class="cls-1" d="M67.61,25.47a2.85,2.85,0,0,1-4-.62,2.8,2.8,0,0,1,.63-3.93,2.84,2.84,0,0,1,4,.62A2.8,2.8,0,0,1,67.61,25.47Z"/><path class="cls-1" d="M61.17,31.35a3.85,3.85,0,0,1-5.36-.84,3.8,3.8,0,0,1,.85-5.33A3.86,3.86,0,0,1,62,26,3.8,3.8,0,0,1,61.17,31.35Z"/><path class="cls-1" d="M53.81,34.74a2.28,2.28,0,0,1-3.17-.5,2.24,2.24,0,0,1,.5-3.14,2.28,2.28,0,0,1,3.17.5A2.24,2.24,0,0,1,53.81,34.74Z"/><path class="cls-1" d="M9.84,77.74a1.9,1.9,0,0,1,2.64-.42,1.87,1.87,0,0,1,.42,2.62,1.9,1.9,0,0,1-2.64.41A1.87,1.87,0,0,1,9.84,77.74Z"/><path class="cls-1" d="M12.88,72a2.84,2.84,0,0,1,4-.62,2.8,2.8,0,0,1,.63,3.93,2.84,2.84,0,0,1-4,.62A2.8,2.8,0,0,1,12.88,72Z"/><path class="cls-1" d="M17.17,64.41a3.85,3.85,0,0,1,5.36-.85,3.8,3.8,0,0,1,.85,5.33,3.85,3.85,0,0,1-5.36.84A3.8,3.8,0,0,1,17.17,64.41Z"/><path class="cls-1" d="M23.13,58.93a2.28,2.28,0,0,1,3.17-.5,2.24,2.24,0,0,1,.5,3.14,2.28,2.28,0,0,1-3.17.5A2.24,2.24,0,0,1,23.13,58.93Z"/><path class="cls-1" d="M63.24,11.1a1.9,1.9,0,0,1-2.64.41,1.87,1.87,0,0,1-.42-2.62,1.89,1.89,0,0,1,2.64-.41A1.87,1.87,0,0,1,63.24,11.1Z"/><path class="cls-1" d="M60.19,16.86a2.85,2.85,0,0,1-4,.62,2.8,2.8,0,0,1-.63-3.93,2.85,2.85,0,0,1,4-.62A2.8,2.8,0,0,1,60.19,16.86Z"/><path class="cls-1" d="M55.9,24.43a3.85,3.85,0,0,1-5.36.84,3.8,3.8,0,0,1-.85-5.33,3.85,3.85,0,0,1,5.36-.84A3.8,3.8,0,0,1,55.9,24.43Z"/><path class="cls-1" d="M50,29.91a2.28,2.28,0,0,1-3.17.5,2.24,2.24,0,0,1-.5-3.14,2.28,2.28,0,0,1,3.17-.5A2.24,2.24,0,0,1,50,29.91Z"/><path class="cls-1" d="M21.51,84.3a1.89,1.89,0,1,1,1.21,2.36A1.87,1.87,0,0,1,21.51,84.3Z"/><path class="cls-1" d="M22.61,77.89a2.84,2.84,0,0,1,3.57-1.81A2.81,2.81,0,0,1,28,79.63a2.83,2.83,0,0,1-5.39-1.74Z"/><path class="cls-1" d="M24.34,69.37a3.84,3.84,0,1,1,2.46,4.81A3.84,3.84,0,0,1,24.34,69.37Z"/><path class="cls-1" d="M28.3,62.33a2.26,2.26,0,1,1,1.45,2.84A2.27,2.27,0,0,1,28.3,62.33Z"/><path class="cls-1" d="M51.57,4.54a1.89,1.89,0,1,1-1.21-2.36A1.87,1.87,0,0,1,51.57,4.54Z"/><path class="cls-1" d="M50.46,11a2.84,2.84,0,0,1-3.57,1.81A2.82,2.82,0,1,1,50.46,11Z"/><path class="cls-1" d="M48.74,19.47a3.84,3.84,0,1,1-2.46-4.81A3.84,3.84,0,0,1,48.74,19.47Z"/><path class="cls-1" d="M44.78,26.51a2.27,2.27,0,1,1-1.46-2.84A2.25,2.25,0,0,1,44.78,26.51Z"/></g></g></svg>