<svg xmlns="http://www.w3.org/2000/svg" viewBox="0 0 972.52 43"><defs><style>.cls-1{fill:#e4e4e4;}.cls-2{fill:#fff;}</style></defs><title>menu_bg_3</title><g id="Слой_2" data-name="Слой 2"><g id="Layer_1" data-name="Layer 1"><path class="cls-1" d="M2,41V2H956.33a7,7,0,0,1,6.07,3.51L969.59,18a7.05,7.05,0,0,1,0,7L962.4,37.49A7,7,0,0,1,956.33,41Z"/><path class="cls-2" d="M956.33,4a5,5,0,0,1,4.34,2.51L967.85,19a5,5,0,0,1,0,5l-7.19,12.48A5,5,0,0,1,956.33,39H4V4H956.33m0-4H0V43H956.33a9,9,0,0,0,7.8-4.51L971.32,26a9.06,9.06,0,0,0,0-9L964.13,4.51A9,9,0,0,0,956.33,0Z"/></g></g></svg>