<svg xmlns="http://www.w3.org/2000/svg" viewBox="0 0 258.95 58"><defs><style>.cls-1{fill:red;}.cls-2{fill:#fff;}</style></defs><title>menu_bg_1</title><g id="Слой_2" data-name="Слой 2"><g id="Layer_1" data-name="Layer 1"><path class="cls-1" d="M20.54,56a7,7,0,0,1-6.06-3.5L2.93,32.5a7,7,0,0,1,0-7l11.55-20A7,7,0,0,1,20.54,2H238.41a7,7,0,0,1,6.06,3.5L256,25.5a7,7,0,0,1,0,7l-11.55,20a7,7,0,0,1-6.06,3.5Z"/><path class="cls-2" d="M238.41,4a5,5,0,0,1,4.33,2.5l11.55,20a5,5,0,0,1,0,5l-11.55,20a5,5,0,0,1-4.33,2.5H20.54a5,5,0,0,1-4.33-2.5L4.67,31.5a5,5,0,0,1,0-5l11.55-20A5,5,0,0,1,20.54,4H238.41m0-4H20.54a9,9,0,0,0-7.79,4.5L1.2,24.5a9,9,0,0,0,0,9l11.55,20A9,9,0,0,0,20.54,58H238.41a9,9,0,0,0,7.79-4.5l11.55-20a9,9,0,0,0,0-9L246.2,4.5A9,9,0,0,0,238.41,0Z"/></g></g></svg>