<svg xmlns="http://www.w3.org/2000/svg" viewBox="0 0 37.25 37.25"><defs><style>.cls-1{fill:#d5652b;}.cls-2{fill:#fff;}</style></defs><title>od</title><g id="Слой_2" data-name="Слой 2"><g id="Layer_1" data-name="Layer 1"><circle class="cls-1" cx="18.62" cy="18.62" r="18.62"/><path class="cls-2" d="M18.62,18.59A5.63,5.63,0,1,0,13,13,5.63,5.63,0,0,0,18.62,18.59Zm0-8.4A2.77,2.77,0,1,1,15.85,13,2.77,2.77,0,0,1,18.62,10.19Zm6.49,9.09c-.32-.64-1.2-1.17-2.37-.25a7.44,7.44,0,0,1-8.24,0c-1.17-.92-2.05-.39-2.37.25-.55,1.11.07,1.65,1.48,2.56A9.45,9.45,0,0,0,17.55,23l-.89.89-3.32,3.32a1.29,1.29,0,0,0,0,1.83l.15.15a1.29,1.29,0,0,0,1.83,0l3.32-3.32L22,29.19a1.29,1.29,0,0,0,1.83,0l.15-.15a1.29,1.29,0,0,0,0-1.83L20.62,23.9l-.9-.9a9.42,9.42,0,0,0,3.91-1.17C25,20.92,25.67,20.39,25.11,19.27Z"/></g></g></svg>