<svg xmlns="http://www.w3.org/2000/svg" viewBox="0 0 32.74 32.74"><defs><style>.cls-1{fill:#4f7399;}.cls-2{fill:#fff;fill-rule:evenodd;}</style></defs><title>soc_vk</title><g id="Слой_2" data-name="Слой 2"><g id="Layer_1" data-name="Layer 1"><circle class="cls-1" cx="16.37" cy="16.37" r="16.37"/><path id="Logo" class="cls-2" d="M27.13,10.81c.16-.52,0-.91-.75-.91H23.91a1.07,1.07,0,0,0-1.07.7,20.64,20.64,0,0,1-3,5c-.57.57-.84.76-1.15.76-.16,0-.38-.18-.38-.71V10.81c0-.63-.18-.91-.7-.91H13.69a.59.59,0,0,0-.63.57c0,.59.89.73,1,2.4v3.63c0,.8-.14.94-.46.94-.84,0-2.87-3.07-4.08-6.59-.24-.68-.47-1-1.1-1H5.94c-.7,0-.85.33-.85.7,0,.65.84,3.89,3.89,8.18,2,2.93,4.91,4.51,7.52,4.51,1.57,0,1.76-.35,1.76-1V20.12c0-.7.15-.85.65-.85s1,.18,2.46,1.59c1.67,1.67,1.95,2.42,2.89,2.42h2.47c.7,0,1.06-.35.85-1a10.59,10.59,0,0,0-2.08-2.89c-.57-.68-1.44-1.41-1.7-1.78s-.26-.68,0-1.1C23.81,16.48,26.81,12.25,27.13,10.81Z"/></g></g></svg>