<?xml version="1.0" encoding="utf-8"?>
<!-- Generator: Adobe Illustrator 26.0.1, SVG Export Plug-In . SVG Version: 6.00 Build 0)  -->
<svg version="1.1" id="Layer_1" xmlns="http://www.w3.org/2000/svg" xmlns:xlink="http://www.w3.org/1999/xlink" x="0px" y="0px"
	 viewBox="0 0 32.7 32.7" style="enable-background:new 0 0 32.7 32.7;" xml:space="preserve">
<style type="text/css">
	.st0{fill:url(#SVGID_1_);}
	.st1{fill:#C8DAEA;}
	.st2{fill:#A9C6D8;}
	.st3{fill:#FFFFFF;}
</style>
<g>
	
		<linearGradient id="SVGID_1_" gradientUnits="userSpaceOnUse" x1="16.37" y1="1.26" x2="16.37" y2="34" gradientTransform="matrix(1 0 0 -1 0 34)">
		<stop  offset="0" style="stop-color:#1D93D2"/>
		<stop  offset="1" style="stop-color:#38B0E3"/>
	</linearGradient>
	<circle class="st0" cx="16.4" cy="16.4" r="16.4"/>
	<path class="st1" d="M11.1,17.6l1.9,5.4c0,0,0.2,0.5,0.5,0.5c0.3,0,4.1-4,4.1-4l4.3-8.3l-10.8,5.1L11.1,17.6z"/>
	<path class="st2" d="M13.7,18.9l-0.4,4c0,0-0.2,1.2,1.1,0s2.4-2.2,2.4-2.2"/>
	<path class="st3" d="M11.1,17.8l-4-1.3c0,0-0.5-0.2-0.3-0.6c0-0.1,0.1-0.2,0.3-0.3C8,14.9,23.5,9.3,23.5,9.3s0.4-0.1,0.7,0
		c0.1,0,0.2,0.1,0.3,0.3c0,0.1,0,0.2,0,0.4c0,0.1,0,0.2,0,0.3c-0.1,1.5-2.9,12.9-2.9,12.9s-0.2,0.7-0.8,0.7c-0.3,0-0.6-0.1-0.8-0.3
		c-1.2-1-5.3-3.8-6.2-4.4c0,0-0.1-0.1-0.1-0.1c0-0.1,0.1-0.1,0.1-0.1s7.2-6.4,7.3-7c0-0.1,0-0.1-0.1-0.1c-0.5,0.2-8.7,5.4-9.6,5.9
		C11.3,17.8,11.2,17.8,11.1,17.8z"/>
</g>
</svg>
