<svg width="16" height="16" viewBox="0 0 16 16" fill="none" xmlns="http://www.w3.org/2000/svg">
<path d="M6 9C6.55228 9 7 9.44772 7 10V15C7 15.5523 6.55228 16 6 16H1C0.447715 16 2.41598e-08 15.5523 0 15V10C0 9.44771 0.447715 9 1 9H6ZM15 9C15.5523 9 16 9.44772 16 10V15C16 15.5523 15.5523 16 15 16H10C9.44771 16 9 15.5523 9 15V10C9 9.44771 9.44772 9 10 9H15ZM6 0C6.55228 0 7 0.447715 7 1V6C7 6.55228 6.55228 7 6 7H1C0.447715 7 2.41598e-08 6.55228 0 6V1C0 0.447715 0.447715 2.41596e-08 1 0H6ZM15 0C15.5523 0 16 0.447715 16 1V6C16 6.55228 15.5523 7 15 7H10C9.44771 7 9 6.55228 9 6V1C9 0.447715 9.44772 2.41596e-08 10 0H15Z" fill="#D1D3D4"/>
</svg>
