<svg xmlns="http://www.w3.org/2000/svg" viewBox="0 0 37.25 37.25"><defs><style>.cls-1{fill:#cc2128;}.cls-2{fill:#fff;}</style></defs><title>yt</title><g id="Слой_2" data-name="Слой 2"><g id="Layer_1" data-name="Layer 1"><circle class="cls-1" cx="18.62" cy="18.62" r="18.62"/><path class="cls-2" d="M29.46,15.68c-.15-2.09-.54-4.24-3.24-4.4a135.18,135.18,0,0,0-15.2,0c-2.7.16-3.09,2.31-3.24,4.4a41.2,41.2,0,0,0,0,6.23c.15,2.09.54,4.24,3.24,4.4a135.18,135.18,0,0,0,15.2,0c2.7-.16,3.09-2.31,3.24-4.4A41.2,41.2,0,0,0,29.46,15.68Zm-13.07,6V15.5l5.87,3.07Z"/></g></g></svg>