<svg xmlns="http://www.w3.org/2000/svg" viewBox="0 0 38.38 31.18"><defs><style>.cls-1,.cls-2,.cls-3{fill:none;}.cls-2,.cls-3{stroke:#201600;}.cls-2{stroke-miterlimit:10;stroke-width:0.74px;}.cls-3{stroke-linecap:round;stroke-linejoin:round;stroke-width:0.93px;}</style></defs><title>Ресурс 38</title><g id="Слой_2" data-name="Слой 2"><g id="Layer_1" data-name="Layer 1"><rect class="cls-1" width="38.38" height="31.18"/><rect class="cls-2" x="16.19" y="20.75" width="5.99" height="1.59" transform="translate(38.38 43.08) rotate(180)"/><path class="cls-2" d="M18.78,22.33h.81a2.19,2.19,0,0,1,2.19,2.19v2.3a0,0,0,0,1,0,0H16.59a0,0,0,0,1,0,0v-2.3A2.19,2.19,0,0,1,18.78,22.33Z" transform="translate(38.38 49.15) rotate(180)"/><line class="cls-2" x1="21.77" y1="24.02" x2="16.61" y2="23.4"/><line class="cls-2" x1="21.71" y1="25.34" x2="16.67" y2="24.74"/><path class="cls-3" d="M22.1,20.75a11.86,11.86,0,0,1,.71-4.16c.88-2.24,2.45-4.12,2.45-6.78a6.07,6.07,0,1,0-12.14,0c0,2.66,1.58,4.54,2.45,6.78a12,12,0,0,1,.72,4.16"/></g></g></svg>