<svg xmlns="http://www.w3.org/2000/svg" viewBox="0 0 38.38 31.18"><defs><style>.cls-1,.cls-2,.cls-3{fill:none;}.cls-2,.cls-3{stroke:#201600;}.cls-2{stroke-miterlimit:10;stroke-width:0.74px;}.cls-3{stroke-linecap:round;stroke-linejoin:round;stroke-width:0.93px;}</style></defs><title>Ресурс 36</title><g id="Слой_2" data-name="Слой 2"><g id="Layer_1" data-name="Layer 1"><rect class="cls-1" width="38.38" height="31.18"/><rect class="cls-2" x="16.2" y="20.64" width="5.97" height="1.58"/><path class="cls-2" d="M16.6,22.22h5.18a0,0,0,0,1,0,0v2.29a2.18,2.18,0,0,1-2.18,2.18h-.81a2.18,2.18,0,0,1-2.18-2.18V22.22A0,0,0,0,1,16.6,22.22Z"/><line class="cls-2" x1="16.62" y1="23.9" x2="21.76" y2="23.28"/><line class="cls-2" x1="16.68" y1="25.22" x2="21.7" y2="24.62"/><path class="cls-3" d="M16.2,20.64A3.79,3.79,0,0,1,15.69,19c-.06-.62-.11-2.11-.22-3.62-.17-2.58-1.57-4.17-2.53-5.56l-.09-.15a5,5,0,0,1-.79-2.47c0-2.52,3.19-3.26,7.13-3.26s7.13.74,7.13,3.26a5,5,0,0,1-.81,2.5l-.07.12c-1,1.39-2.37,3-2.54,5.56-.1,1.51-.16,3-.21,3.62a4,4,0,0,1-.51,1.69"/><line class="cls-2" x1="12.09" y1="7.46" x2="26.27" y2="7.46"/></g></g></svg>