<svg xmlns="http://www.w3.org/2000/svg" viewBox="0 0 38.38 31.18"><defs><style>.cls-1,.cls-2,.cls-3,.cls-4{fill:none;}.cls-2,.cls-3,.cls-4{stroke:#201600;}.cls-2{stroke-miterlimit:10;stroke-width:0.74px;}.cls-3,.cls-4{stroke-linecap:round;stroke-linejoin:round;}.cls-3{stroke-width:0.94px;}.cls-4{stroke-width:0.91px;}</style></defs><title>Ресурс 37</title><g id="Слой_2" data-name="Слой 2"><g id="Layer_1" data-name="Layer 1"><rect class="cls-1" width="38.38" height="31.18"/><rect class="cls-2" x="17.17" y="18.78" width="4.04" height="1.5"/><path class="cls-2" d="M17.44,20.29h3.5a0,0,0,0,1,0,0v2.5a1.75,1.75,0,0,1-1.75,1.75h0a1.75,1.75,0,0,1-1.75-1.75v-2.5A0,0,0,0,1,17.44,20.29Z"/><line class="cls-2" x1="17.45" y1="21.81" x2="20.93" y2="21.37"/><line class="cls-2" x1="17.69" y1="23.03" x2="20.88" y2="22.63"/><path class="cls-3" d="M21.21,18.78A5.1,5.1,0,0,1,23,14.94"/><path class="cls-3" d="M17.17,18.78a5.1,5.1,0,0,0-1.8-3.84"/><circle class="cls-4" cx="19.19" cy="11.15" r="5.38"/></g></g></svg>