<svg xmlns="http://www.w3.org/2000/svg" viewBox="0 0 38.38 31.18"><defs><style>.cls-1,.cls-2,.cls-3{fill:none;}.cls-2,.cls-3{stroke:#201600;}.cls-2{stroke-linecap:round;stroke-linejoin:round;stroke-width:0.93px;}.cls-3{stroke-miterlimit:10;stroke-width:0.75px;}</style></defs><title>Ресурс 42</title><g id="Слой_2" data-name="Слой 2"><g id="Layer_1" data-name="Layer 1"><rect class="cls-1" width="38.38" height="31.18"/><path class="cls-2" d="M16.46,16.19l.39,4h4.68l.4-4a5.91,5.91,0,0,1-2.74.68A5.84,5.84,0,0,1,16.46,16.19Z"/><path class="cls-2" d="M26.39,7.79H12v0c0,3.77,1.84,7,4.47,8.36a5.84,5.84,0,0,0,2.73.68,5.91,5.91,0,0,0,2.74-.68c2.62-1.35,4.47-4.59,4.47-8.36Z"/><line class="cls-3" x1="20.2" y1="20.27" x2="20.2" y2="22.85"/><line class="cls-3" x1="18.18" y1="20.27" x2="18.18" y2="22.85"/></g></g></svg>