<svg xmlns="http://www.w3.org/2000/svg" viewBox="0 0 38.38 31.18"><defs><style>.cls-1,.cls-2{fill:none;}.cls-2{stroke:#201600;stroke-miterlimit:10;stroke-width:0.73px;}</style></defs><title>Ресурс 41</title><g id="Слой_2" data-name="Слой 2"><g id="Layer_1" data-name="Layer 1"><rect class="cls-1" width="38.38" height="31.18"/><path class="cls-2" d="M23.26,17.13a18,18,0,0,0-1.2-6.1,14.49,14.49,0,0,1-1.4-4.64,15.71,15.71,0,0,0-1.17-4.71c-.23-.43-.49-.46-.71-.35a.54.54,0,0,0-.2.69,6.35,6.35,0,0,1,.54,2.31,6,6,0,0,1-1,2.69c-.31.54-3,5.4-3,10.14a11.66,11.66,0,0,0,2.08,6.29h4a11.69,11.69,0,0,0,2.07-6.29h0Z"/><rect class="cls-2" x="17.19" y="23.45" width="3.99" height="1.49"/><path class="cls-2" d="M17.46,24.93h3.46a0,0,0,0,1,0,0V27.4a1.73,1.73,0,0,1-1.73,1.73h0a1.73,1.73,0,0,1-1.73-1.73V24.93A0,0,0,0,1,17.46,24.93Z"/><line class="cls-2" x1="17.47" y1="26.43" x2="20.91" y2="26"/><line class="cls-2" x1="17.71" y1="27.64" x2="20.85" y2="27.25"/></g></g></svg>