<svg xmlns="http://www.w3.org/2000/svg" viewBox="0 0 38.38 31.18"><defs><style>.cls-1,.cls-2,.cls-3{fill:none;}.cls-2,.cls-3{stroke:#201600;}.cls-2{stroke-linecap:round;stroke-linejoin:round;stroke-width:0.93px;}.cls-3{stroke-miterlimit:10;stroke-width:0.74px;}</style></defs><title>Ресурс 39</title><g id="Слой_2" data-name="Слой 2"><g id="Layer_1" data-name="Layer 1"><rect class="cls-1" width="38.38" height="31.18"/><path class="cls-2" d="M19.19,3.7h0c.51,0,.79.38,1.11.92s3,5.4,3,10.15v0h0v0a11.74,11.74,0,0,1-2.08,6.32h-4a11.74,11.74,0,0,1-2.08-6.32v0h0v0c0-4.75,2.67-9.6,3-10.15s.61-.92,1.11-.92Z"/><rect class="cls-3" x="17.19" y="21.14" width="4.01" height="1.49" transform="translate(38.39 43.77) rotate(180)"/><path class="cls-3" d="M19.19,22.63h0a1.74,1.74,0,0,1,1.74,1.74v2.48a0,0,0,0,1,0,0H17.45a0,0,0,0,1,0,0V24.37A1.74,1.74,0,0,1,19.19,22.63Z" transform="translate(38.38 49.48) rotate(180)"/><line class="cls-3" x1="20.92" y1="24.14" x2="17.46" y2="23.71"/><line class="cls-3" x1="20.68" y1="25.35" x2="17.52" y2="24.96"/></g></g></svg>