<svg xmlns="http://www.w3.org/2000/svg" viewBox="0 0 38.38 31.18"><defs><style>.cls-1,.cls-2,.cls-3,.cls-4{fill:none;}.cls-2,.cls-3,.cls-4{stroke:#201600;}.cls-2{stroke-linecap:round;stroke-linejoin:round;stroke-width:0.93px;}.cls-3,.cls-4{stroke-miterlimit:10;}.cls-3{stroke-width:0.74px;}.cls-4{stroke-width:0.62px;}</style></defs><title>Ресурс 40</title><g id="Слой_2" data-name="Слой 2"><g id="Layer_1" data-name="Layer 1"><rect class="cls-1" width="38.38" height="31.18"/><path class="cls-2" d="M19.24,3.71h0c.51,0,.79.38,1.11.93s2.95,5.38,3,10.12v0h0v0a11.67,11.67,0,0,1-2.08,6.3h-4a11.67,11.67,0,0,1-2.08-6.3v0h0v0c0-4.74,2.66-9.58,3-10.12s.6-.93,1.1-.93Z"/><rect class="cls-3" x="17.24" y="21.11" width="4" height="1.49" transform="translate(38.49 43.71) rotate(180)"/><path class="cls-3" d="M19.24,22.6h0A1.73,1.73,0,0,1,21,24.33v2.48a0,0,0,0,1,0,0H17.51a0,0,0,0,1,0,0V24.33A1.73,1.73,0,0,1,19.24,22.6Z" transform="translate(38.48 49.41) rotate(180)"/><line class="cls-3" x1="20.97" y1="24.11" x2="17.52" y2="23.68"/><line class="cls-3" x1="20.73" y1="25.32" x2="17.57" y2="24.92"/><line class="cls-4" x1="22.53" y1="10.11" x2="17.51" y2="5.83"/><line class="cls-4" x1="23.34" y1="14.46" x2="16.45" y2="8.54"/><line class="cls-4" x1="21.45" y1="20.68" x2="15.04" y2="15.05"/><line class="cls-4" x1="22.88" y1="17.95" x2="15.47" y2="11.56"/></g></g></svg>