<?xml version="1.0" encoding="utf-8"?>
<!-- Generator: Adobe Illustrator 28.1.0, SVG Export Plug-In . SVG Version: 6.00 Build 0)  -->
<svg version="1.1" id="_Слой_2" xmlns="http://www.w3.org/2000/svg" xmlns:xlink="http://www.w3.org/1999/xlink" x="0px"
	 y="0px" viewBox="0 0 37.6 52.7" style="enable-background:new 0 0 37.6 52.7;" xml:space="preserve">
<style type="text/css">
	.st0{fill:none;stroke:#000000;stroke-width:0.738;stroke-linecap:round;stroke-linejoin:round;stroke-miterlimit:10;}
	.st1{fill:#FFFFFF;stroke:#1D1D1B;stroke-width:0.7087;stroke-linejoin:round;stroke-miterlimit:10;}
	.st2{fill:none;stroke:#000000;stroke-width:0.7087;stroke-linecap:round;stroke-linejoin:round;}
	.st3{fill:none;stroke:#000000;stroke-width:1.3702;stroke-linecap:round;stroke-linejoin:round;}
	.st4{fill:none;}
	.st5{fill:none;stroke:#1D1D1B;stroke-width:0.7087;stroke-linejoin:round;stroke-miterlimit:10;}
</style>
<path class="st0" d="M9.3,18.6c2.5,0.2,3.1,2.5,3.1,2.5s-0.1,1.6-2.8,1.4c-2.5-0.2-6.5-2.8-6.5-2.8S6.7,18.4,9.3,18.6z"/>
<path class="st0" d="M8.1,20.1c3.4,0.7,9.1,1,20.3,18.3"/>
<path class="st0" d="M19.5,16.6c-2.2,3.1-5.7,3.5-5.7,3.5s-1.7-1.8,0.2-4.8s8-6,8-6S21.6,13.6,19.5,16.6z"/>
<path class="st0" d="M17.8,14.6c0,0-2.4,2.4-4.4,7.1"/>
<path class="st1" d="M13.4,38.4c4.8,0.7,8.5-0.2,11.1-2c1.6-1.1,5-4,3-8.6c-1.1-2.5-2.4-6.7-2.4-6.7s2,1.6,4.2-0.2
	c0.1-0.1,1.3,0,2.3-0.1s1.9-0.3,1.9-0.7c0-0.3-0.7-0.7-1.4-1.1c-0.8-0.4-2.5-1.7-2.5-1.7c-0.8-3.6-4.2-3.3-6-2.2
	c-2.1,1.3-3.4,5.9-0.6,13C11.6,21.8,8.7,28,4,26.5c-0.6,3.7,1.7,4.9,2.8,7C7.8,35.6,9.7,37.8,13.4,38.4z"/>
<g>
	<g>
		<path class="st2" d="M22.2,32.3c-2.7,1.6-5.7,3.2-8.9,3c-0.6,0-1.1-0.1-1.6-0.5c-1.4-1.2,0.9-4.4,1.6-4.8"/>
		<line class="st3" x1="27.1" y1="17.4" x2="27.1" y2="17.4"/>
	</g>
</g>
<path class="st4" d="M29.7,20.9c0.1-0.1,1.2,0,2.2-0.1c0.9-0.1,1.7-0.3,1.8-0.7c0-0.3-0.7-0.7-1.3-1.1c-0.8-0.4-2.4-1.7-2.4-1.7"/>
<path class="st5" d="M29.4,20.9c0.1-0.1,1.3,0,2.3-0.1c1-0.1,1.9-0.3,1.9-0.7c0-0.3-0.7-0.7-1.4-1.1c-0.8-0.4-2.5-1.7-2.5-1.7"/>
<path class="st2" d="M29.6,17.3c0.7,2,0.2,3-0.3,3.6"/>
</svg>
