<svg xmlns="http://www.w3.org/2000/svg" viewBox="0 0 233.43 27"><defs><style>.cls-1{fill:#3759f5;}</style></defs><title>menu_bg_4</title><g id="Слой_2" data-name="Слой 2"><g id="Layer_1" data-name="Layer 1"><path class="cls-1" d="M223.1,1a5,5,0,0,1,4.33,2.5l4.33,7.5a5,5,0,0,1,0,5l-4.33,7.5A5,5,0,0,1,223.1,26H10.33A5,5,0,0,1,6,23.5L1.67,16a5,5,0,0,1,0-5L6,3.5A5,5,0,0,1,10.33,1H223.1m0-1H10.33a6,6,0,0,0-5.2,3L.8,10.5a6,6,0,0,0,0,6L5.13,24a6,6,0,0,0,5.2,3H223.1a6,6,0,0,0,5.2-3l4.33-7.5a6,6,0,0,0,0-6L228.3,3a6,6,0,0,0-5.2-3Z"/></g></g></svg>