<svg xmlns="http://www.w3.org/2000/svg" viewBox="0 0 391.74 52.02"><defs><style>.cls-1{fill:red;}.cls-2{fill:#fff;}</style></defs><title>menu_bg_2</title><g id="Слой_2" data-name="Слой 2"><g id="Layer_1" data-name="Layer 1"><path class="cls-1" d="M2,50V2H372.92A7,7,0,0,1,379,5.5l9.82,17a7,7,0,0,1,0,7l-9.82,17a7,7,0,0,1-6.06,3.5Z"/><path class="cls-2" d="M372.92,4a5,5,0,0,1,4.33,2.5l9.82,17a5,5,0,0,1,0,5l-9.82,17a5,5,0,0,1-4.33,2.5H4V4H372.92m0-4H0V52H372.92a9,9,0,0,0,7.79-4.5l9.82-17a9,9,0,0,0,0-9l-9.82-17A9,9,0,0,0,372.92,0Z"/></g></g></svg>