<svg xmlns="http://www.w3.org/2000/svg" viewBox="0 0 32.74 32.74"><defs><style>.cls-1{fill:#f79a27;}.cls-2{fill:#fff;}</style></defs><title>soc_ok</title><g id="Слой_2" data-name="Слой 2"><g id="Layer_1" data-name="Layer 1"><circle class="cls-1" cx="16.37" cy="16.37" r="16.37"/><path class="cls-2" d="M15.25,20.28c-.54-.11-1-.2-1.55-.32A6.32,6.32,0,0,1,11,18.54a1.08,1.08,0,0,1-.41-1.2,1.23,1.23,0,0,1,1-.95,1.6,1.6,0,0,1,1.17.35,7.19,7.19,0,0,0,1.17.65,6.51,6.51,0,0,0,4.91,0,6.47,6.47,0,0,0,1.06-.62A1.55,1.55,0,0,1,21,16.4a1.22,1.22,0,0,1,.95,1,1.07,1.07,0,0,1-.41,1.18,5.61,5.61,0,0,1-2,1.19c-.65.2-1.33.32-2,.48l-.27.06.17.18c1.09,1.09,2.17,2.18,3.27,3.26a1.22,1.22,0,0,1-.45,2.06,1.07,1.07,0,0,1-1.24-.26L16.49,22.9l-.24-.23a1.08,1.08,0,0,1-.14.24l-2.54,2.54a1.14,1.14,0,0,1-1.34.29,1.31,1.31,0,0,1-.79-1.24,1.21,1.21,0,0,1,.42-.82L15,20.51Z"/><path class="cls-2" d="M16.24,6.85a4.82,4.82,0,1,1-4.83,4.81A4.77,4.77,0,0,1,16.24,6.85Zm2.31,4.82A2.31,2.31,0,1,0,16.28,14,2.28,2.28,0,0,0,18.55,11.67Z"/></g></g></svg>