<?xml version="1.0" standalone="no"?>
<!DOCTYPE svg PUBLIC "-//W3C//DTD SVG 20010904//EN"
 "http://www.w3.org/TR/2001/REC-SVG-20010904/DTD/svg10.dtd">
<svg version="1.0" xmlns="http://www.w3.org/2000/svg"
 width="15.000000pt" height="12.000000pt" viewBox="0 0 421.000000 396.000000"
 preserveAspectRatio="xMidYMid meet">
<metadata>
Created by potrace 1.16, written by Peter Selinger 2001-2019
</metadata>
<g transform="translate(0.000000,396.000000) scale(0.100000,-0.100000)"
fill="#ffffff" stroke="none">
<path d="M2080 3793 c-6 -10 -59 -103 -119 -208 -59 -104 -132 -230 -161 -280
-29 -49 -80 -139 -113 -199 l-60 -109 33 -61 c40 -72 145 -254 220 -381 29
-49 99 -171 155 -270 56 -99 160 -279 230 -400 71 -121 156 -269 189 -330 98
-177 200 -262 342 -285 82 -14 761 -13 769 0 4 6 -7 32 -23 58 -16 26 -51 88
-77 137 -27 50 -65 117 -85 150 -47 76 -117 196 -265 455 -148 258 -208 361
-275 475 -29 50 -64 110 -77 135 -53 97 -90 161 -178 310 -50 85 -114 196
-142 245 -28 50 -78 137 -111 195 -32 58 -85 150 -117 205 -32 55 -68 117 -79
137 -23 41 -40 48 -56 21z"/>
<path d="M1492 2768 c-21 -35 -154 -266 -291 -508 -91 -159 -101 -176 -174
-300 -28 -47 -78 -134 -112 -195 -34 -60 -85 -150 -114 -200 -29 -49 -141
-243 -248 -430 -108 -187 -230 -398 -273 -470 -42 -71 -103 -177 -135 -235
-32 -58 -64 -114 -71 -125 -32 -46 -42 -45 459 -45 l472 0 59 103 c33 56 83
143 111 192 29 50 104 180 167 290 63 110 139 241 168 290 29 50 76 131 103
180 28 50 98 171 155 270 135 231 158 281 166 358 12 116 -17 201 -140 407
-52 86 -95 161 -217 378 -22 39 -46 72 -53 72 -7 0 -21 -15 -32 -32z"/>
<path d="M1810 1064 c-123 -33 -191 -97 -297 -279 -167 -286 -293 -509 -293
-517 0 -4 647 -8 1438 -8 790 0 1447 -3 1459 -6 41 -11 38 21 -9 98 -25 40
-73 123 -108 183 -35 61 -74 127 -86 147 -13 21 -24 39 -24 42 0 11 -193 341
-203 348 -7 4 -419 7 -917 7 -764 0 -914 -3 -960 -15z"/>
</g>
</svg>
