<svg width="12" height="10" viewBox="0 0 12 10" fill="none" xmlns="http://www.w3.org/2000/svg">
<path d="M11.5916 1.00833C11.5142 0.930225 11.422 0.868229 11.3205 0.825922C11.2189 0.783615 11.11 0.761833 11 0.761833C10.89 0.761833 10.781 0.783615 10.6795 0.825922C10.5779 0.868229 10.4858 0.930225 10.4083 1.00833L4.19998 7.225L1.59165 4.60833C1.51121 4.53063 1.41626 4.46954 1.31221 4.42853C1.20817 4.38753 1.09706 4.36742 0.985247 4.36936C0.87343 4.37129 0.763089 4.39523 0.660523 4.43981C0.557958 4.48439 0.465177 4.54873 0.387478 4.62917C0.30978 4.7096 0.248685 4.80455 0.207681 4.9086C0.166678 5.01264 0.146569 5.12375 0.148504 5.23556C0.150438 5.34738 0.174378 5.45772 0.218956 5.56029C0.263534 5.66285 0.327877 5.75563 0.408312 5.83333L3.60831 9.03333C3.68578 9.11144 3.77795 9.17343 3.8795 9.21574C3.98105 9.25805 4.08997 9.27983 4.19998 9.27983C4.30999 9.27983 4.41891 9.25805 4.52046 9.21574C4.62201 9.17343 4.71418 9.11144 4.79165 9.03333L11.5916 2.23333C11.6762 2.1553 11.7437 2.06059 11.7899 1.95517C11.8361 1.84975 11.8599 1.73592 11.8599 1.62083C11.8599 1.50575 11.8361 1.39191 11.7899 1.28649C11.7437 1.18108 11.6762 1.08637 11.5916 1.00833Z" fill="#00B749"/>
</svg>
