<svg width="20" height="20" viewBox="0 0 20 20" fill="none" xmlns="http://www.w3.org/2000/svg">
<path d="M8 11C8.55228 11 9 11.4477 9 12V17C9 17.5523 8.55228 18 8 18H3C2.44772 18 2 17.5523 2 17V12C2 11.4477 2.44772 11 3 11H8ZM17 11C17.5523 11 18 11.4477 18 12V17C18 17.5523 17.5523 18 17 18H12C11.4477 18 11 17.5523 11 17V12C11 11.4477 11.4477 11 12 11H17ZM8 2C8.55228 2 9 2.44772 9 3V8C9 8.55228 8.55228 9 8 9H3C2.44772 9 2 8.55228 2 8V3C2 2.44772 2.44772 2 3 2H8ZM17 2C17.5523 2 18 2.44772 18 3V8C18 8.55228 17.5523 9 17 9H12C11.4477 9 11 8.55228 11 8V3C11 2.44772 11.4477 2 12 2H17Z" fill="black"/>
</svg>
