<svg xmlns="http://www.w3.org/2000/svg" viewBox="0 0 37.25 37.25"><defs><style>.cls-1{fill:#4674b8;}.cls-2{fill:#fff;}</style></defs><title>vk</title><g id="Слой_2" data-name="Слой 2"><g id="Layer_1" data-name="Layer 1"><circle class="cls-1" cx="18.62" cy="18.62" r="18.62"/><path class="cls-2" d="M26.38,18.4s3.09-4.36,3.4-5.8c.1-.51-.12-.8-.66-.8H26.45a1,1,0,0,0-1,.66,24.3,24.3,0,0,1-3.22,5c-.57.63-.85.82-1.17.82s-.37-.21-.37-.78v-5c0-.7-.08-.9-.66-.9h-4.3a.47.47,0,0,0-.53.45c0,.66,1,.8,1,2.58v3.67c0,.74,0,1-.39,1-.92,0-3.11-3.17-4.34-6.78-.25-.74-.51-.94-1.21-.94H7.56a.64.64,0,0,0-.68.66c0,.72.84,4,4.14,8.48,2.21,3,5.12,4.61,7.74,4.61,1.6,0,2-.27,2-.94V22.17c0-.57.23-.82.55-.82s1,.12,2.54,1.62c1.8,1.72,1.93,2.44,2.91,2.44h3c.31,0,.59-.14.59-.66,0-.68-.88-1.88-2.23-3.32-.55-.74-1.45-1.54-1.74-1.9S26.1,18.85,26.38,18.4Z"/></g></g></svg>